<svg width="152" height="48" viewBox="0 0 152 48" fill="none" xmlns="http://www.w3.org/2000/svg">
<rect width="151.999" height="48" rx="6" fill="white"/>
<path d="M40.4879 23.0216C40.4623 19.9294 42.9969 18.4221 43.1149 18.3547C41.6783 16.2414 39.4515 15.9514 38.6665 15.9307C36.7938 15.7339 34.9825 17.0599 34.0282 17.0599C33.0585 17.0599 31.591 15.9514 30.0056 15.9825C27.9687 16.0135 26.0651 17.2049 25.0236 19.0489C22.8686 22.8144 24.4746 28.3463 26.5423 31.3919C27.5736 32.8837 28.7794 34.5463 30.3597 34.4893C31.904 34.4272 32.4838 33.4948 34.3463 33.4948C36.1934 33.4948 36.7373 34.4893 38.3484 34.4531C40.0056 34.4272 41.0523 32.9561 42.0477 31.4541C43.2432 29.7448 43.7204 28.0614 43.7409 27.9785C43.6999 27.9526 40.5187 26.7251 40.4879 23.0216ZM37.4454 13.9262C38.2765 12.8747 38.846 11.4503 38.687 10C37.4864 10.0518 35.9779 10.8391 35.1159 11.8647C34.3515 12.7711 33.6639 14.2525 33.8435 15.6458C35.1878 15.7442 36.5782 14.9569 37.4454 13.9262Z" fill="#111833"/>
<path d="M62.8672 34.2655H60.7072L59.5219 30.5154H55.4121L54.2833 34.2655H52.1797L56.2536 21.4925H58.7677L62.8672 34.2655ZM59.1679 28.9408L58.0955 25.6052C57.9827 25.2633 57.7672 24.4604 57.4593 23.1966H57.4234C57.3003 23.7405 57.095 24.5433 56.8231 25.6052L55.7713 28.9408H59.1679ZM73.3242 29.5468C73.3242 31.1111 72.9032 32.349 72.0618 33.2607C71.3072 34.0687 70.3685 34.4727 69.2499 34.4727C68.039 34.4727 67.1721 34.0376 66.6438 33.1674V38H64.6169V28.081C64.6169 27.0969 64.5915 26.0868 64.54 25.0561H66.3252L66.4386 26.5168H66.474C67.1516 25.4187 68.1778 24.8644 69.5525 24.8644C70.6301 24.8644 71.528 25.2944 72.2466 26.1542C72.9646 27.014 73.3242 28.1483 73.3242 29.5468ZM71.2613 29.6245C71.2613 28.7285 71.0611 27.9878 70.6611 27.4077C70.2246 26.8016 69.6349 26.5012 68.8959 26.5012C68.3985 26.5012 67.9416 26.6721 67.5361 27.0036C67.1312 27.3403 66.864 27.7806 66.7412 28.3192C66.6847 28.5213 66.6538 28.7336 66.6488 28.9408V30.4792C66.6488 31.1474 66.854 31.7119 67.2595 32.1781C67.6645 32.6391 68.1933 32.8721 68.8444 32.8721C69.6089 32.8721 70.2042 32.5717 70.6301 31.9813C71.0456 31.3805 71.2613 30.5983 71.2613 29.6245ZM83.8216 29.5468C83.8216 31.1111 83.4011 32.349 82.5592 33.2607C81.8052 34.0687 80.8664 34.4727 79.7479 34.4727C78.5369 34.4727 77.6695 34.0376 77.1412 33.1674V38H75.1143V28.081C75.1143 27.0969 75.0889 26.0868 75.0374 25.0561H76.8231L76.936 26.5168H76.9719C77.649 25.4187 78.6752 24.8644 80.0505 24.8644C81.1281 24.8644 82.0259 25.2944 82.7439 26.1542C83.4576 27.014 83.8216 28.1483 83.8216 29.5468ZM81.7537 29.6245C81.7537 28.7285 81.554 27.9878 81.1535 27.4077C80.7176 26.8016 80.1274 26.5012 79.3888 26.5012C78.891 26.5012 78.434 26.6721 78.0236 27.0036C77.6186 27.3403 77.3514 27.7806 77.2286 28.3192C77.1667 28.5731 77.1313 28.7802 77.1313 28.9408V30.4792C77.1313 31.1474 77.3365 31.7119 77.7414 32.1781C78.1469 32.6391 78.6752 32.8721 79.3324 32.8721C80.0964 32.8721 80.6916 32.5717 81.1176 31.9813C81.5435 31.3805 81.7537 30.5983 81.7537 29.6245ZM95.5559 30.6864C95.5559 31.7741 95.1814 32.6598 94.4324 33.3383C93.6114 34.0842 92.4569 34.4571 90.9843 34.4571C89.6246 34.4571 88.532 34.193 87.7055 33.6595L88.1724 31.9554C89.0603 32.4889 90.04 32.753 91.1021 32.753C91.8667 32.753 92.4619 32.5769 92.8879 32.2299C93.3138 31.8828 93.529 31.4167 93.529 30.8366C93.529 30.3186 93.3498 29.8835 93.0007 29.5261C92.6516 29.1739 92.0719 28.8424 91.2565 28.542C89.0398 27.7081 87.9312 26.4857 87.9312 24.8852C87.9312 23.8389 88.3212 22.9791 89.1062 22.3109C89.8862 21.6427 90.9229 21.3061 92.2157 21.3061C93.3653 21.3061 94.3245 21.5081 95.089 21.912L94.5812 23.5799C93.8626 23.1863 93.0571 22.9946 92.1488 22.9946C91.4357 22.9946 90.8715 23.1707 90.471 23.5229C90.1324 23.8389 89.9631 24.2222 89.9631 24.678C89.9631 25.1804 90.1584 25.6 90.5484 25.9263C90.887 26.2267 91.4971 26.5582 92.385 26.9104C93.4726 27.3558 94.2731 27.8686 94.7864 28.4643C95.2992 29.06 95.5559 29.8006 95.5559 30.6864ZM102.277 26.5945H100.04V31.0645C100.04 32.204 100.435 32.7685 101.226 32.7685C101.59 32.7685 101.887 32.7375 102.128 32.6753L102.185 34.2292C101.785 34.3795 101.262 34.4571 100.61 34.4571C99.8094 34.4571 99.1832 34.2085 98.7318 33.7165C98.2804 33.2244 98.0547 32.3956 98.0547 31.2354V26.5945H96.7259V25.0613H98.0547V23.3727L100.046 22.7667V25.0613H102.282L102.277 26.5945ZM112.339 29.5883C112.339 31.0023 111.939 32.1678 111.138 33.0742C110.302 34.0117 109.189 34.4779 107.798 34.4779C106.459 34.4779 105.392 34.0272 104.596 33.1363C103.801 32.2403 103.406 31.1059 103.406 29.7437C103.406 28.3141 103.817 27.1487 104.638 26.237C105.459 25.3254 106.562 24.8748 107.952 24.8748C109.291 24.8748 110.369 25.3254 111.179 26.2215C111.949 27.0865 112.339 28.2105 112.339 29.5883ZM110.235 29.6349C110.235 28.7906 110.056 28.0655 109.691 27.4646C109.266 26.7343 108.66 26.3665 107.87 26.3665C107.059 26.3665 106.433 26.7343 106.012 27.4646C105.648 28.0706 105.469 28.8062 105.469 29.6763C105.469 30.5206 105.648 31.2458 106.012 31.8518C106.449 32.5821 107.065 32.9499 107.855 32.9499C108.63 32.9499 109.235 32.5769 109.676 31.8363C110.051 31.2095 110.235 30.4792 110.235 29.6349ZM118.932 26.8586C118.721 26.8224 118.506 26.8016 118.29 26.8016C117.577 26.8016 117.029 27.071 116.639 27.6149C116.3 28.0965 116.131 28.7026 116.131 29.4329V34.2655H114.104V27.9567C114.104 26.9881 114.088 26.0247 114.048 25.0561H115.813L115.884 26.8172H115.941C116.156 26.2111 116.49 25.7243 116.957 25.3565C117.377 25.0354 117.896 24.8644 118.424 24.8644C118.614 24.8644 118.778 24.88 118.932 24.9007V26.8586ZM127.998 29.2257C128.003 29.5365 127.977 29.8473 127.927 30.1529H121.841C121.862 31.0645 122.16 31.7585 122.724 32.2403C123.237 32.6701 123.899 32.8825 124.715 32.8825C125.618 32.8825 126.438 32.7375 127.178 32.4474L127.496 33.8666C126.633 34.2448 125.613 34.4364 124.438 34.4364C123.021 34.4364 121.913 34.0169 121.102 33.1778C120.297 32.3387 119.891 31.2095 119.891 29.7955C119.891 28.4073 120.266 27.2523 121.021 26.3303C121.805 25.3461 122.873 24.8541 124.212 24.8541C125.525 24.8541 126.52 25.3461 127.198 26.3303C127.726 27.1124 127.998 28.0758 127.998 29.2257ZM126.064 28.6974C126.079 28.0914 125.946 27.5682 125.669 27.1227C125.32 26.553 124.776 26.2681 124.053 26.2681C123.391 26.2681 122.852 26.5478 122.436 27.102C122.098 27.5423 121.898 28.0758 121.836 28.6922L126.064 28.6974Z" fill="#111833"/>
<path d="M54.8283 16.9805C54.2639 16.9805 53.7765 16.9546 53.3711 16.908V10.7287C53.9407 10.6406 54.5153 10.594 55.09 10.5992C57.4142 10.5992 58.4866 11.7542 58.4866 13.6344C58.4814 15.8047 57.2193 16.9805 54.8283 16.9805ZM55.172 11.3917C54.8591 11.3917 54.5923 11.4124 54.3717 11.459V16.1518C54.4897 16.1725 54.7206 16.1776 55.0438 16.1776C56.5676 16.1776 57.4347 15.3023 57.4347 13.6655C57.4296 12.1997 56.6446 11.3917 55.172 11.3917ZM61.8216 17.0271C60.5133 17.0271 59.6615 16.0378 59.6615 14.6963C59.6615 13.2977 60.5286 12.3033 61.8935 12.3033C63.1864 12.3033 64.0537 13.2459 64.0537 14.6237C64.0537 16.0378 63.1608 17.0271 61.8216 17.0271ZM61.8575 13.0388C61.1392 13.0388 60.6775 13.7173 60.6775 14.6703C60.6775 15.6027 61.1495 16.2812 61.8473 16.2812C62.5502 16.2812 63.0171 15.556 63.0171 14.6496C63.0222 13.7277 62.5605 13.0388 61.8575 13.0388ZM71.524 12.3965L70.1233 16.9235H69.21L68.6303 14.9604C68.4864 14.4787 68.3636 13.9918 68.2712 13.4998H68.2508C68.1789 13.9918 68.04 14.4891 67.8912 14.9604L67.2755 16.9235H66.3522L65.0334 12.3965H66.0596L66.5674 14.546C66.6858 15.0588 66.7881 15.5405 66.8706 16.0015H66.891C66.9629 15.6182 67.0858 15.1469 67.2606 14.5564L67.8967 12.3965H68.7072L69.3179 14.5098C69.4667 15.0226 69.5845 15.525 69.6769 16.0015H69.7024C69.7693 15.5353 69.8667 15.0433 70.0055 14.5098L70.5493 12.3965H71.524ZM76.6909 16.9235H75.6957V14.3233C75.6957 13.5205 75.3925 13.1216 74.7923 13.1216C74.2026 13.1216 73.7971 13.6344 73.7971 14.2301V16.9235H72.8019V13.6914C72.8019 13.2926 72.7914 12.8627 72.7659 12.3965H73.6433L73.6892 13.0957H73.7147C73.9819 12.6141 74.5257 12.3033 75.1364 12.3033C76.0751 12.3033 76.6958 13.0284 76.6958 14.2145L76.6909 16.9235ZM79.4358 16.9235H78.4406V10.3194H79.4358V16.9235ZM83.0736 17.0271C81.7653 17.0271 80.9134 16.0378 80.9134 14.6963C80.9134 13.2977 81.7808 12.3033 83.1455 12.3033C84.4383 12.3033 85.3057 13.2459 85.3057 14.6237C85.3057 16.0378 84.4079 17.0271 83.0736 17.0271ZM83.1096 13.0388C82.391 13.0388 81.9296 13.7173 81.9296 14.6703C81.9296 15.6027 82.4015 16.2812 83.099 16.2812C83.8021 16.2812 84.269 15.556 84.269 14.6496C84.269 13.7277 83.8127 13.0388 83.1096 13.0388ZM89.2356 16.9235L89.1637 16.4003H89.1383C88.8357 16.8199 88.3892 17.0219 87.825 17.0219C87.019 17.0219 86.4497 16.4521 86.4497 15.6907C86.4497 14.5719 87.409 13.997 89.0713 13.997V13.9141C89.0713 13.3184 88.7588 13.018 88.1431 13.018C87.7016 13.018 87.3116 13.132 86.9731 13.3547L86.7728 12.6917C87.1888 12.4327 87.7066 12.2981 88.3123 12.2981C89.4818 12.2981 90.077 12.9196 90.077 14.1679V15.8358C90.077 16.2916 90.0975 16.6489 90.144 16.9183L89.2356 16.9235ZM89.0973 14.6703C87.9887 14.6703 87.435 14.9397 87.435 15.582C87.435 16.0585 87.7221 16.2916 88.1171 16.2916C88.6255 16.2916 89.0973 15.9031 89.0973 15.3696V14.6703ZM94.9053 16.9235L94.8594 16.1983H94.8334C94.5463 16.7474 94.0639 17.0271 93.3918 17.0271C92.3092 17.0271 91.5087 16.0689 91.5087 14.717C91.5087 13.3029 92.3401 12.3033 93.4736 12.3033C94.0744 12.3033 94.4998 12.5053 94.736 12.9196H94.7565V10.3194H95.7517V15.7011C95.7517 16.1362 95.7622 16.5505 95.7876 16.9183H94.9053V16.9235ZM94.7615 14.2612C94.7615 13.6292 94.346 13.0854 93.7099 13.0854C92.9708 13.0854 92.5194 13.7484 92.5194 14.6755C92.5194 15.5872 92.9863 16.2139 93.6894 16.2139C94.315 16.2139 94.7615 15.6648 94.7615 15.0122V14.2612ZM102.084 17.0271C100.775 17.0271 99.9233 16.0378 99.9233 14.6963C99.9233 13.2977 100.79 12.3033 102.155 12.3033C103.448 12.3033 104.315 13.2459 104.315 14.6237C104.315 16.0378 103.423 17.0271 102.084 17.0271ZM102.119 13.0388C101.401 13.0388 100.939 13.7173 100.939 14.6703C100.939 15.6027 101.411 16.2812 102.109 16.2812C102.812 16.2812 103.279 15.556 103.279 14.6496C103.284 13.7277 102.822 13.0388 102.119 13.0388ZM109.677 16.9235H108.681V14.3233C108.681 13.5205 108.379 13.1216 107.779 13.1216C107.188 13.1216 106.783 13.6344 106.783 14.2301V16.9235H105.788V13.6914C105.788 13.2926 105.778 12.8627 105.752 12.3965H106.629L106.676 13.0957H106.701C106.968 12.6141 107.512 12.3033 108.122 12.3033C109.062 12.3033 109.682 13.0284 109.682 14.2145V16.9235H109.677ZM116.378 13.1527H115.28V15.3489C115.28 15.9083 115.47 16.188 115.86 16.188C116.034 16.188 116.183 16.1673 116.301 16.1414L116.327 16.9028C116.132 16.9753 115.875 17.0167 115.552 17.0167C114.767 17.0167 114.295 16.5817 114.295 15.4317V13.1475H113.638V12.3913H114.295V11.5625L115.275 11.2622V12.3913H116.373L116.378 13.1527ZM121.658 16.9235H120.662V14.344C120.662 13.536 120.359 13.1268 119.759 13.1268C119.241 13.1268 118.764 13.479 118.764 14.199V16.9287H117.768V10.3194H118.764V13.0388H118.784C119.098 12.5467 119.554 12.3033 120.134 12.3033C121.083 12.3033 121.663 13.0491 121.663 14.2301L121.658 16.9235ZM127.06 14.9034H124.069C124.09 15.7581 124.649 16.245 125.48 16.245C125.921 16.245 126.332 16.1725 126.691 16.0326L126.845 16.7318C126.419 16.9183 125.921 17.0115 125.341 17.0115C123.941 17.0115 123.11 16.1155 123.11 14.7325C123.11 13.3443 123.961 12.3033 125.229 12.3033C126.373 12.3033 127.091 13.1579 127.091 14.4528C127.101 14.5979 127.091 14.7532 127.06 14.9034ZM126.147 14.1835C126.147 13.4842 125.798 12.9921 125.162 12.9921C124.587 12.9921 124.136 13.4946 124.074 14.1835H126.147Z" fill="#111833"/>
</svg>
