<svg width="83" height="32" viewBox="0 0 83 32" fill="none" xmlns="http://www.w3.org/2000/svg">
<path d="M35.6377 13.6725H40.489V23.8801C40.489 25.2827 40.8642 26.2826 41.6145 26.88C42.3649 27.4774 43.1928 27.7761 44.0984 27.7761C45.004 27.7761 45.8061 27.4774 46.5047 26.88C47.2291 26.2826 47.5914 25.2827 47.5914 23.8801V13.6725H52.4427V31.5942H47.5914V29.9579C46.3753 31.2566 44.7194 31.9059 42.6236 31.9059C40.7348 31.9059 39.0918 31.3345 37.6947 30.1917C36.3233 29.0229 35.6377 27.1787 35.6377 24.6593V13.6725ZM61.0574 13.6725L61.0186 31.5942H56.1673V13.6725H61.0574ZM56.7495 6.38694C57.2669 5.94538 57.8879 5.72461 58.6124 5.72461C59.311 5.72461 59.9319 5.95837 60.4753 6.4259C61.0186 6.89342 61.2903 7.51678 61.2903 8.29599C61.2903 9.10117 61.0186 9.75051 60.4753 10.244C59.9319 10.7635 59.311 11.0232 58.6124 11.0232C57.9138 11.0232 57.2928 10.7765 56.7495 10.283C56.2061 9.76349 55.9344 9.10117 55.9344 8.29599C55.9344 7.49081 56.2061 6.85446 56.7495 6.38694ZM64.7851 31.5942V6.27005H69.6752L69.6364 31.5942H64.7851ZM72.0166 17.3737V13.6725H74.3452V8.17911H79.1966V13.6725H83V17.3737H79.1966V25.6333C79.1966 26.1268 79.2613 26.5294 79.3906 26.8411C79.52 27.1528 79.714 27.3735 79.9728 27.5034C80.2574 27.6333 80.5032 27.7242 80.7102 27.7761C80.9431 27.8021 81.2406 27.8151 81.6028 27.8151H82.806V31.5942H79.5847C76.0917 31.5942 74.3452 29.867 74.3452 26.4125V17.3737H72.0166Z" fill="white"/>
<path fill-rule="evenodd" clip-rule="evenodd" d="M22.7724 6.70683C25.7013 8.89392 27.4245 12.3244 27.4245 15.9999C27.4245 19.6754 25.6915 23.1133 22.7724 25.2928C19.845 23.1068 18.12 19.6784 18.12 15.9999C18.12 12.3214 19.8451 8.89262 22.7724 6.70683ZM4.40767 15.9999C4.40767 9.61024 9.55972 4.43088 15.9163 4.43088C16.2962 4.43088 16.6716 4.44947 17.042 4.48554C18.3092 3.08709 19.7997 1.90357 21.4499 0.993522C19.7262 0.351005 17.862 0 15.9163 0C7.12628 0 0 7.16381 0 15.9999C0 24.836 7.12628 32 15.9163 32C18.2926 32 20.6298 31.4727 22.7724 30.4433C24.8487 31.441 27.1738 32 29.6285 32V27.5687C28.7875 27.5687 27.9675 27.4782 27.1778 27.3061C30.1655 24.2985 31.8324 20.2571 31.8324 15.9997C31.8324 9.80192 28.2808 4.20369 22.7724 1.55628C17.2482 4.21113 13.7124 9.814 13.7124 15.9997C13.7124 20.4141 15.4909 24.411 18.3669 27.3061C17.5621 27.4816 16.74 27.5687 15.9165 27.5687C9.56009 27.5687 4.40785 22.3896 4.40785 15.9999H4.40767Z" fill="white"/>
</svg>
