<svg width="152" height="48" viewBox="0 0 152 48" fill="none" xmlns="http://www.w3.org/2000/svg">
<rect width="152" height="48" rx="6" fill="white"/>
<path d="M55.1095 13.5134C55.1095 14.34 54.9016 15.0632 54.3819 15.5798C53.7581 16.1997 53.0305 16.5097 52.0949 16.5097C51.1594 16.5097 50.4317 16.1997 49.808 15.5798C49.1843 14.9599 48.8724 14.2367 48.8724 13.3068C48.8724 12.377 49.1843 11.6538 49.808 11.0339C50.4317 10.414 51.1594 10.104 52.0949 10.104C52.5107 10.104 52.9265 10.2073 53.3423 10.414C53.7581 10.6206 54.07 10.8273 54.2779 11.1372L53.7581 11.6538C53.3423 11.1372 52.8226 10.9306 52.0949 10.9306C51.4712 10.9306 50.8475 11.1372 50.4317 11.6538C49.9119 12.067 49.7041 12.687 49.7041 13.4101C49.7041 14.1334 49.9119 14.7533 50.4317 15.1665C50.9514 15.5798 51.4712 15.8897 52.0949 15.8897C52.8226 15.8897 53.3423 15.6831 53.8621 15.1665C54.1739 14.8566 54.3819 14.4433 54.3819 13.9267H52.0949V13.2035H55.1095C55.1095 13.2035 55.1095 13.3068 55.1095 13.5134Z" fill="#101921"/>
<path d="M59.8896 10.9306H57.083V12.8936H59.6817V13.6168H57.083V15.5798H59.8896V16.303H56.2513V10.104H59.8896V10.9306Z" fill="#101921"/>
<path d="M63.3152 16.303H62.4834V10.8273H60.7162V10.104H65.0819V10.8273H63.3152V16.303Z" fill="#101921"/>
<path d="M68.099 16.303V10.104H68.9301V16.303H68.099Z" fill="#101921"/>
<path d="M72.467 16.303H71.6358V10.8273H69.8685V10.104H74.1305V10.8273H72.3632V16.303H72.467Z" fill="#101921"/>
<path d="M82.339 15.5798C81.7155 16.1997 80.9876 16.5097 80.052 16.5097C79.1165 16.5097 78.3891 16.1997 77.765 15.5798C77.1415 14.9599 76.8295 14.2367 76.8295 13.3068C76.8295 12.377 77.1415 11.6538 77.765 11.0339C78.3891 10.414 79.1165 10.104 80.052 10.104C80.9876 10.104 81.7155 10.414 82.339 11.0339C82.9625 11.6538 83.2746 12.377 83.2746 13.3068C83.2746 14.1334 82.9625 14.9599 82.339 15.5798ZM78.3891 15.0632C78.805 15.4765 79.4285 15.7864 80.052 15.7864C80.6761 15.7864 81.2996 15.5798 81.7155 15.0632C82.1314 14.65 82.4428 14.0301 82.4428 13.3068C82.4428 12.5836 82.2352 11.9637 81.7155 11.5505C81.2996 11.1372 80.6761 10.8273 80.052 10.8273C79.4285 10.8273 78.805 11.0339 78.3891 11.5505C77.9733 11.9637 77.6612 12.5836 77.6612 13.3068C77.6612 13.9267 77.8694 14.5467 78.3891 15.0632Z" fill="#101921"/>
<path d="M84.4193 16.303V10.104H85.3549L88.3692 14.9599V13.7201V10.104H89.2009V16.303H88.3692L85.1466 11.2405V12.4803V16.303H84.4193Z" fill="#101921"/>
<path d="M76.6228 25.3954C74.1282 25.3954 72.1532 27.2551 72.1532 29.8381C72.1532 32.3176 74.1282 34.2806 76.6228 34.2806C79.1174 34.2806 81.0929 32.4209 81.0929 29.8381C81.0929 27.2551 79.1174 25.3954 76.6228 25.3954ZM76.6228 32.4209C75.2713 32.4209 74.1282 31.2845 74.1282 29.7348C74.1282 28.185 75.2713 27.0485 76.6228 27.0485C77.9742 27.0485 79.1174 28.0817 79.1174 29.7348C79.1174 31.3878 77.9742 32.4209 76.6228 32.4209ZM66.9551 25.3954C64.4605 25.3954 62.4855 27.2551 62.4855 29.8381C62.4855 32.3176 64.4605 34.2806 66.9551 34.2806C69.4504 34.2806 71.4253 32.4209 71.4253 29.8381C71.4253 27.2551 69.4504 25.3954 66.9551 25.3954ZM66.9551 32.4209C65.6043 32.4209 64.4605 31.2845 64.4605 29.7348C64.4605 28.185 65.6043 27.0485 66.9551 27.0485C68.3066 27.0485 69.4504 28.0817 69.4504 29.7348C69.4504 31.3878 68.3066 32.4209 66.9551 32.4209ZM55.4168 26.7386V28.5983H59.8867C59.7828 29.6315 59.3669 30.4579 58.8472 30.9745C58.2235 31.5944 57.1839 32.3176 55.4168 32.3176C52.6101 32.3176 50.5311 30.148 50.5311 27.3585C50.5311 24.569 52.7141 22.3993 55.4168 22.3993C56.8721 22.3993 58.0156 23.0192 58.8472 23.7424L60.1986 22.3993C59.0551 21.3662 57.5998 20.5396 55.5208 20.5396C51.7785 20.5396 48.556 23.6391 48.556 27.3585C48.556 31.0778 51.7785 34.1773 55.5208 34.1773C57.5998 34.1773 59.0551 33.5574 60.3025 32.2143C61.5499 30.9745 61.9657 29.2181 61.9657 27.8751C61.9657 27.4618 61.9657 27.0485 61.8618 26.7386H55.4168ZM102.611 28.185C102.195 27.1518 101.155 25.3954 98.8686 25.3954C96.5816 25.3954 94.7105 27.1518 94.7105 29.8381C94.7105 32.3176 96.5816 34.2806 99.0762 34.2806C101.051 34.2806 102.299 33.0409 102.715 32.3176L101.259 31.2845C100.74 32.0077 100.116 32.5242 99.0762 32.5242C98.0368 32.5242 97.4127 32.111 96.8931 31.1812L102.818 28.7016L102.611 28.185ZM96.5816 29.6315C96.5816 27.9784 97.933 27.0485 98.8686 27.0485C99.5959 27.0485 100.324 27.4618 100.531 27.9784L96.5816 29.6315ZM91.6956 33.8674H93.6705V20.9529H91.6956V33.8674ZM88.5774 26.3253C88.0571 25.8087 87.226 25.2921 86.186 25.2921C84.0034 25.2921 81.9241 27.2551 81.9241 29.7348C81.9241 32.2143 83.8996 34.074 86.186 34.074C87.226 34.074 88.0571 33.5574 88.473 33.0409H88.5774V33.6608C88.5774 35.3138 87.6419 36.2436 86.186 36.2436C85.0428 36.2436 84.2111 35.4171 84.0034 34.6939L82.34 35.4171C82.8596 36.5536 84.1073 38 86.2904 38C88.5774 38 90.4485 36.6569 90.4485 33.4541V25.6021H88.5774V26.3253ZM86.2904 32.4209C84.939 32.4209 83.7952 31.2845 83.7952 29.7348C83.7952 28.185 84.939 27.0485 86.2904 27.0485C87.6419 27.0485 88.6812 28.185 88.6812 29.7348C88.6812 31.2845 87.6419 32.4209 86.2904 32.4209ZM111.654 20.9529H106.977V33.8674H108.952V29.0115H111.654C113.837 29.0115 115.916 27.4618 115.916 24.9822C115.916 22.5026 113.837 20.9529 111.654 20.9529ZM111.758 27.2551H108.952V22.8126H111.758C113.213 22.8126 114.045 24.0524 114.045 24.9822C113.941 26.0154 113.11 27.2551 111.758 27.2551ZM123.713 25.3954C122.257 25.3954 120.802 26.0154 120.282 27.3585L122.049 28.0817C122.465 27.3585 123.089 27.1518 123.817 27.1518C124.856 27.1518 125.792 27.7718 125.895 28.8049V28.9082C125.584 28.7016 124.752 28.3916 123.92 28.3916C122.049 28.3916 120.178 29.4248 120.178 31.2845C120.178 33.0409 121.737 34.1773 123.401 34.1773C124.752 34.1773 125.376 33.5574 125.895 32.9376H125.999V33.9707H127.87V29.0115C127.663 26.6353 125.895 25.3954 123.713 25.3954ZM123.505 32.4209C122.881 32.4209 121.946 32.111 121.946 31.2845C121.946 30.2513 123.089 29.9414 124.024 29.9414C124.856 29.9414 125.272 30.148 125.792 30.3546C125.584 31.5945 124.544 32.4209 123.505 32.4209ZM134.419 25.6021L132.237 31.1812H132.133L129.846 25.6021H127.767L131.197 33.4541L129.222 37.7934H131.197L136.499 25.6021H134.419ZM116.956 33.8674H118.931V20.9529H116.956V33.8674Z" fill="#101921"/>
<path d="M16.125 36.4504C15.7092 36.2438 15.5013 35.7273 15.5013 35.2107C15.5013 35.1073 15.5013 34.9007 15.5013 34.7974C15.5013 27.152 15.5013 19.5066 15.5013 11.9645C15.5013 11.5513 15.6053 11.2414 15.7092 10.8281C15.8132 10.6214 16.0211 10.4148 16.229 10.2082C20.6989 14.6508 25.0648 19.0933 29.4307 23.536C24.9609 27.6686 20.595 32.0079 16.125 36.4504Z" fill="#00D8FE"/>
<path d="M33.7967 18.9885C32.5493 20.2283 31.1979 21.4681 29.9505 22.8112C25.7925 18.5752 21.5305 14.3393 17.3724 10.1033C17.3724 10.1033 17.3724 10 17.4764 10C22.8819 12.9961 28.2873 15.9923 33.7967 18.9885Z" fill="#00F667"/>
<path d="M17.3724 36.4467C21.5305 32.314 25.7925 28.1815 29.9505 24.0488C31.094 25.1852 32.3414 26.3218 33.6928 27.5615C28.2873 30.5577 22.8819 33.5539 17.4764 36.4467H17.3724Z" fill="#FF0046"/>
<path d="M34.4163 27.1521C33.0649 25.9124 31.8176 24.6725 30.4662 23.4328C31.8176 22.0897 33.1689 20.7466 34.5202 19.4034C34.9361 19.61 35.3519 19.8167 35.7677 20.1266C36.8072 20.7466 37.9507 21.2631 38.9902 21.883C39.302 21.9863 39.5099 22.193 39.7178 22.5029C40.1336 23.0195 40.1336 23.5361 39.7178 24.0527C39.5099 24.2593 39.302 24.4659 38.9902 24.5692C37.5349 25.4991 35.9756 26.3256 34.4163 27.1521Z" fill="#FFC502"/>
</svg>
