<svg width="22" height="22" viewBox="0 0 22 22" fill="none" xmlns="http://www.w3.org/2000/svg">
<path d="M10.998 0.998047C13.4993 3.7364 14.9208 7.29008 14.998 10.998C14.9208 14.706 13.4993 18.2597 10.998 20.998M10.998 0.998047C8.49677 3.7364 7.07529 7.29008 6.99805 10.998C7.07529 14.706 8.49677 18.2597 10.998 20.998M10.998 0.998047C5.4752 0.998047 0.998047 5.4752 0.998047 10.998C0.998047 16.5209 5.4752 20.998 10.998 20.998M10.998 0.998047C16.5209 0.998047 20.998 5.4752 20.998 10.998C20.998 16.5209 16.5209 20.998 10.998 20.998M1.49807 7.99805H20.4981M1.49805 13.998H20.498" stroke="white" stroke-width="1.5" stroke-linecap="round" stroke-linejoin="round"/>
</svg>
